<svg width="15" height="24" viewBox="0 0 15 24" fill="none" xmlns="http://www.w3.org/2000/svg">
<path d="M5.50305 11.9496L13.567 3.88571C13.9912 3.45891 14.2294 2.88156 14.2294 2.27976C14.2294 1.67796 13.9912 1.10061 13.567 0.673812C13.3552 0.460304 13.1033 0.290837 12.8257 0.175189C12.5481 0.0595409 12.2503 0 11.9496 0C11.6489 0 11.3512 0.0595409 11.0736 0.175189C10.796 0.290837 10.5441 0.460304 10.3323 0.673812L0.673812 10.3323C0.460304 10.5441 0.290838 10.796 0.17519 11.0736C0.059542 11.3512 0 11.6489 0 11.9496C0 12.2503 0.059542 12.5481 0.17519 12.8257C0.290838 13.1033 0.460304 13.3552 0.673812 13.567L10.3323 23.3394C10.5451 23.5505 10.7976 23.7175 11.0751 23.8309C11.3527 23.9442 11.6498 24.0017 11.9496 24C12.2494 24.0017 12.5466 23.9442 12.8242 23.8309C13.1017 23.7175 13.3541 23.5505 13.567 23.3394C13.9912 22.9126 14.2294 22.3352 14.2294 21.7334C14.2294 21.1316 13.9912 20.5543 13.567 20.1275L5.50305 11.9496Z" fill="#FFC700"/>
</svg>
